<svg width="35" height="auto" viewBox="0 0 50 50" fill="none" xmlns="http://www.w3.org/2000/svg">
<circle cx="25" cy="25" r="25" fill="#4B4B4B"/>
<path d="M24.9998 25C27.2551 25 29.418 24.1041 31.0127 22.5094C32.6074 20.9147 33.5033 18.7519 33.5033 16.4966C33.5033 14.2414 32.6074 12.0785 31.0127 10.4838C29.418 8.88912 27.2551 7.99323 24.9998 7.99323C22.7446 7.99323 20.5817 8.88912 18.987 10.4838C17.3923 12.0785 16.4964 14.2414 16.4964 16.4966C16.4964 18.7519 17.3923 20.9147 18.987 22.5094C20.5817 24.1041 22.7446 25 24.9998 25ZM18.6223 28.6671C13.7063 30.1087 10.1189 34.6527 10.1189 40.0338C10.1189 41.1233 11.0025 42.0068 12.092 42.0068H37.9077C38.9972 42.0068 39.8808 41.1233 39.8808 40.0338C39.8808 34.6527 36.2934 30.1087 31.3774 28.6671V32.0419C33.2109 32.5136 34.5662 34.181 34.5662 36.1607V38.8181C34.5662 39.4027 34.0879 39.881 33.5033 39.881H32.4403C31.8557 39.881 31.3774 39.4027 31.3774 38.8181C31.3774 38.2334 31.8557 37.7551 32.4403 37.7551V36.1607C32.4403 34.9849 31.4903 34.0349 30.3145 34.0349C29.1386 34.0349 28.1886 34.9849 28.1886 36.1607V37.7551C28.7732 37.7551 29.2516 38.2334 29.2516 38.8181C29.2516 39.4027 28.7732 39.881 28.1886 39.881H27.1257C26.5411 39.881 26.0628 39.4027 26.0628 38.8181V36.1607C26.0628 34.181 27.418 32.5136 29.2516 32.0419V28.2486C28.853 28.2087 28.4477 28.1888 28.0358 28.1888H21.9639C21.552 28.1888 21.1467 28.2087 20.7481 28.2486V32.5933C22.2827 33.0517 23.4055 34.4733 23.4055 36.1607C23.4055 38.2135 21.738 39.881 19.6852 39.881C17.6324 39.881 15.965 38.2135 15.965 36.1607C15.965 34.4733 17.0877 33.0517 18.6223 32.5933V28.6671ZM19.6852 37.7551C20.1081 37.7551 20.5136 37.5871 20.8126 37.2881C21.1116 36.9891 21.2796 36.5836 21.2796 36.1607C21.2796 35.7379 21.1116 35.3323 20.8126 35.0333C20.5136 34.7343 20.1081 34.5664 19.6852 34.5664C19.2624 34.5664 18.8568 34.7343 18.5578 35.0333C18.2588 35.3323 18.0908 35.7379 18.0908 36.1607C18.0908 36.5836 18.2588 36.9891 18.5578 37.2881C18.8568 37.5871 19.2624 37.7551 19.6852 37.7551Z" fill="white"/>
</svg>
