<svg width="16" height="auto" viewBox="0 0 25 23" fill="none" xmlns="http://www.w3.org/2000/svg">
<path fill-rule="evenodd" clip-rule="evenodd" d="M12.5 2.75C12.8315 2.75 13.1495 2.8817 13.3839 3.11612C13.6183 3.35054 13.75 3.66848 13.75 4V6.5C13.75 7.19036 14.3096 7.75 15 7.75C15.6904 7.75 16.25 7.19036 16.25 6.5V4C16.25 3.00544 15.8549 2.05161 15.1516 1.34835C14.4484 0.645088 13.4946 0.25 12.5 0.25H3.75C2.75544 0.25 1.80161 0.645088 1.09835 1.34835C0.395089 2.05161 0 3.00544 0 4V19C0 19.9946 0.395089 20.9484 1.09835 21.6516C1.80161 22.3549 2.75544 22.75 3.75 22.75H12.5C13.4946 22.75 14.4484 22.3549 15.1516 21.6516C15.8549 20.9484 16.25 19.9946 16.25 19V16.5C16.25 15.8096 15.6904 15.25 15 15.25C14.3096 15.25 13.75 15.8096 13.75 16.5V19C13.75 19.3315 13.6183 19.6495 13.3839 19.8839C13.1495 20.1183 12.8315 20.25 12.5 20.25H3.75C3.41848 20.25 3.10054 20.1183 2.86612 19.8839C2.6317 19.6495 2.5 19.3315 2.5 19V4C2.5 3.66848 2.6317 3.35054 2.86612 3.11612C3.10054 2.8817 3.41848 2.75 3.75 2.75H12.5Z" fill="white"/>
<path fill-rule="evenodd" clip-rule="evenodd" d="M19.1161 6.86612C18.628 7.35427 18.628 8.14573 19.1161 8.63388L20.7322 10.25H8.75C8.05964 10.25 7.5 10.8096 7.5 11.5C7.5 12.1904 8.05964 12.75 8.75 12.75H20.7322L19.1161 14.3661C18.628 14.8543 18.628 15.6457 19.1161 16.1339C19.6043 16.622 20.3957 16.622 20.8839 16.1339L24.6339 12.3839C25.122 11.8957 25.122 11.1043 24.6339 10.6161L20.8839 6.86612C20.3957 6.37796 19.6043 6.37796 19.1161 6.86612Z" fill="white"/>
</svg>
